<svg width="37" height="14" viewBox="0 0 37 14" fill="none" xmlns="http://www.w3.org/2000/svg">
<path d="M22.2988 11H16.709V10.2207L19.6621 6.93945C20.0996 6.44336 20.4004 6.04102 20.5645 5.73242C20.7324 5.41992 20.8164 5.09766 20.8164 4.76562C20.8164 4.32031 20.6816 3.95508 20.4121 3.66992C20.1426 3.38477 19.7832 3.24219 19.334 3.24219C18.7949 3.24219 18.375 3.39648 18.0742 3.70508C17.7773 4.00977 17.6289 4.43555 17.6289 4.98242H16.5449C16.5449 4.19727 16.7969 3.5625 17.3008 3.07812C17.8086 2.59375 18.4863 2.35156 19.334 2.35156C20.127 2.35156 20.7539 2.56055 21.2148 2.97852C21.6758 3.39258 21.9062 3.94531 21.9062 4.63672C21.9062 5.47656 21.3711 6.47656 20.3008 7.63672L18.0156 10.1152H22.2988V11ZM28.6211 4.69531C28.6211 5.12109 28.5078 5.5 28.2812 5.83203C28.0586 6.16406 27.7559 6.42383 27.373 6.61133C27.8184 6.80273 28.1699 7.08203 28.4277 7.44922C28.6895 7.81641 28.8203 8.23242 28.8203 8.69727C28.8203 9.43555 28.5703 10.0234 28.0703 10.4609C27.5742 10.8984 26.9199 11.1172 26.1074 11.1172C25.2871 11.1172 24.6289 10.8984 24.1328 10.4609C23.6406 10.0195 23.3945 9.43164 23.3945 8.69727C23.3945 8.23633 23.5195 7.82031 23.7695 7.44922C24.0234 7.07812 24.373 6.79688 24.8184 6.60547C24.4395 6.41797 24.1406 6.1582 23.9219 5.82617C23.7031 5.49414 23.5938 5.11719 23.5938 4.69531C23.5938 3.97656 23.8242 3.40625 24.2852 2.98438C24.7461 2.5625 25.3535 2.35156 26.1074 2.35156C26.8574 2.35156 27.4629 2.5625 27.9238 2.98438C28.3887 3.40625 28.6211 3.97656 28.6211 4.69531ZM27.7363 8.67383C27.7363 8.19727 27.584 7.80859 27.2793 7.50781C26.9785 7.20703 26.584 7.05664 26.0957 7.05664C25.6074 7.05664 25.2148 7.20508 24.918 7.50195C24.625 7.79883 24.4785 8.18945 24.4785 8.67383C24.4785 9.1582 24.6211 9.53906 24.9062 9.81641C25.1953 10.0938 25.5957 10.2324 26.1074 10.2324C26.6152 10.2324 27.0137 10.0938 27.3027 9.81641C27.5918 9.53516 27.7363 9.1543 27.7363 8.67383ZM26.1074 3.24219C25.6816 3.24219 25.3359 3.375 25.0703 3.64062C24.8086 3.90234 24.6777 4.25977 24.6777 4.71289C24.6777 5.14648 24.8066 5.49805 25.0645 5.76758C25.3262 6.0332 25.6738 6.16602 26.1074 6.16602C26.541 6.16602 26.8867 6.0332 27.1445 5.76758C27.4062 5.49805 27.5371 5.14648 27.5371 4.71289C27.5371 4.2793 27.4023 3.92578 27.1328 3.65234C26.8633 3.37891 26.5215 3.24219 26.1074 3.24219ZM35.5352 7.36133C35.5352 8.63086 35.3184 9.57422 34.8848 10.1914C34.4512 10.8086 33.7734 11.1172 32.8516 11.1172C31.9414 11.1172 31.2676 10.8164 30.8301 10.2148C30.3926 9.60938 30.166 8.70703 30.1504 7.50781V6.06055C30.1504 4.80664 30.3672 3.875 30.8008 3.26562C31.2344 2.65625 31.9141 2.35156 32.8398 2.35156C33.7578 2.35156 34.4336 2.64648 34.8672 3.23633C35.3008 3.82227 35.5234 4.72852 35.5352 5.95508V7.36133ZM34.4512 5.87891C34.4512 4.96094 34.3223 4.29297 34.0645 3.875C33.8066 3.45312 33.3984 3.24219 32.8398 3.24219C32.2852 3.24219 31.8809 3.45117 31.627 3.86914C31.373 4.28711 31.2422 4.92969 31.2344 5.79688V7.53125C31.2344 8.45312 31.3672 9.13477 31.6328 9.57617C31.9023 10.0137 32.3086 10.2324 32.8516 10.2324C33.3867 10.2324 33.7832 10.0254 34.041 9.61133C34.3027 9.19727 34.4395 8.54492 34.4512 7.6543V5.87891Z" fill="#999999"/>
<path fill-rule="evenodd" clip-rule="evenodd" d="M1.98347 8.67527H0.545455C0.244208 8.67527 0 8.44603 0 8.16324V2.112C0 1.82922 0.244208 1.59998 0.545455 1.59998H9.47107C9.77232 1.59998 10.0165 1.82922 10.0165 2.112V8.16324C10.0165 8.44603 9.77232 8.67527 9.47107 8.67527H6.1748L2.84596 10.9073C2.48495 11.1494 1.98347 10.9071 1.98347 10.4906V8.67527ZM10.9091 3.97392C10.9091 3.69114 11.1533 3.46189 11.4545 3.46189C11.7558 3.46189 12 3.69114 12 3.97392V10.0252C12 10.3079 11.7558 10.5372 11.4545 10.5372H10.0165V11.8871C10.0165 12.296 9.53098 12.54 9.1685 12.3131L6.3307 10.5372H5.99999C5.69874 10.5372 5.45453 10.3079 5.45453 10.0252C5.45453 9.74238 5.69874 9.51313 5.99999 9.51313H6.49585C6.60354 9.51313 6.70882 9.54306 6.79842 9.59913L8.92561 10.9303V10.0252C8.92561 9.74238 9.16981 9.51313 9.47106 9.51313H10.9091V3.97392ZM1.09089 2.62403H8.9256V7.65122H5.99998C5.88629 7.65122 5.77545 7.68456 5.68294 7.74659L3.07436 9.49568V8.16325C3.07436 7.88046 2.83015 7.65122 2.5289 7.65122H1.09089V2.62403Z" fill="#2296F9"/>
<mask id="mask0" mask-type="alpha" maskUnits="userSpaceOnUse" x="0" y="1" width="12" height="12">
<path fill-rule="evenodd" clip-rule="evenodd" d="M1.98347 8.67527H0.545455C0.244208 8.67527 0 8.44603 0 8.16324V2.112C0 1.82922 0.244208 1.59998 0.545455 1.59998H9.47107C9.77232 1.59998 10.0165 1.82922 10.0165 2.112V8.16324C10.0165 8.44603 9.77232 8.67527 9.47107 8.67527H6.1748L2.84596 10.9073C2.48495 11.1494 1.98347 10.9071 1.98347 10.4906V8.67527ZM10.9091 3.97392C10.9091 3.69114 11.1533 3.46189 11.4545 3.46189C11.7558 3.46189 12 3.69114 12 3.97392V10.0252C12 10.3079 11.7558 10.5372 11.4545 10.5372H10.0165V11.8871C10.0165 12.296 9.53098 12.54 9.1685 12.3131L6.3307 10.5372H5.99999C5.69874 10.5372 5.45453 10.3079 5.45453 10.0252C5.45453 9.74238 5.69874 9.51313 5.99999 9.51313H6.49585C6.60354 9.51313 6.70882 9.54306 6.79842 9.59913L8.92561 10.9303V10.0252C8.92561 9.74238 9.16981 9.51313 9.47106 9.51313H10.9091V3.97392ZM1.09089 2.62403H8.9256V7.65122H5.99998C5.88629 7.65122 5.77545 7.68456 5.68294 7.74659L3.07436 9.49568V8.16325C3.07436 7.88046 2.83015 7.65122 2.5289 7.65122H1.09089V2.62403Z" fill="white"/>
</mask>
<g mask="url(#mask0)">
</g>
</svg>
