<svg width="30" height="14" viewBox="0 0 30 14" fill="none" xmlns="http://www.w3.org/2000/svg">
<path d="M21.8828 4.69531C21.8828 5.12109 21.7695 5.5 21.543 5.83203C21.3203 6.16406 21.0176 6.42383 20.6348 6.61133C21.0801 6.80273 21.4316 7.08203 21.6895 7.44922C21.9512 7.81641 22.082 8.23242 22.082 8.69727C22.082 9.43555 21.832 10.0234 21.332 10.4609C20.8359 10.8984 20.1816 11.1172 19.3691 11.1172C18.5488 11.1172 17.8906 10.8984 17.3945 10.4609C16.9023 10.0195 16.6562 9.43164 16.6562 8.69727C16.6562 8.23633 16.7812 7.82031 17.0312 7.44922C17.2852 7.07812 17.6348 6.79688 18.0801 6.60547C17.7012 6.41797 17.4023 6.1582 17.1836 5.82617C16.9648 5.49414 16.8555 5.11719 16.8555 4.69531C16.8555 3.97656 17.0859 3.40625 17.5469 2.98438C18.0078 2.5625 18.6152 2.35156 19.3691 2.35156C20.1191 2.35156 20.7246 2.5625 21.1855 2.98438C21.6504 3.40625 21.8828 3.97656 21.8828 4.69531ZM20.998 8.67383C20.998 8.19727 20.8457 7.80859 20.541 7.50781C20.2402 7.20703 19.8457 7.05664 19.3574 7.05664C18.8691 7.05664 18.4766 7.20508 18.1797 7.50195C17.8867 7.79883 17.7402 8.18945 17.7402 8.67383C17.7402 9.1582 17.8828 9.53906 18.168 9.81641C18.457 10.0938 18.8574 10.2324 19.3691 10.2324C19.877 10.2324 20.2754 10.0938 20.5645 9.81641C20.8535 9.53516 20.998 9.1543 20.998 8.67383ZM19.3691 3.24219C18.9434 3.24219 18.5977 3.375 18.332 3.64062C18.0703 3.90234 17.9395 4.25977 17.9395 4.71289C17.9395 5.14648 18.0684 5.49805 18.3262 5.76758C18.5879 6.0332 18.9355 6.16602 19.3691 6.16602C19.8027 6.16602 20.1484 6.0332 20.4062 5.76758C20.668 5.49805 20.7988 5.14648 20.7988 4.71289C20.7988 4.2793 20.6641 3.92578 20.3945 3.65234C20.125 3.37891 19.7832 3.24219 19.3691 3.24219ZM27.6016 7.25C27.375 7.51953 27.1035 7.73633 26.7871 7.90039C26.4746 8.06445 26.1309 8.14648 25.7559 8.14648C25.2637 8.14648 24.834 8.02539 24.4668 7.7832C24.1035 7.54102 23.8223 7.20117 23.623 6.76367C23.4238 6.32227 23.3242 5.83594 23.3242 5.30469C23.3242 4.73438 23.4316 4.2207 23.6465 3.76367C23.8652 3.30664 24.1738 2.95703 24.5723 2.71484C24.9707 2.47266 25.4355 2.35156 25.9668 2.35156C26.8105 2.35156 27.4746 2.66797 27.959 3.30078C28.4473 3.92969 28.6914 4.78906 28.6914 5.87891V6.19531C28.6914 7.85547 28.3633 9.06836 27.707 9.83398C27.0508 10.5957 26.0605 10.9863 24.7363 11.0059H24.5254V10.0918H24.7539C25.6484 10.0762 26.3359 9.84375 26.8164 9.39453C27.2969 8.94141 27.5586 8.22656 27.6016 7.25ZM25.9316 7.25C26.2949 7.25 26.6289 7.13867 26.9336 6.91602C27.2422 6.69336 27.4668 6.41797 27.6074 6.08984V5.65625C27.6074 4.94531 27.4531 4.36719 27.1445 3.92188C26.8359 3.47656 26.4453 3.25391 25.9727 3.25391C25.4961 3.25391 25.1133 3.4375 24.8242 3.80469C24.5352 4.16797 24.3906 4.64844 24.3906 5.24609C24.3906 5.82812 24.5293 6.30859 24.8066 6.6875C25.0879 7.0625 25.4629 7.25 25.9316 7.25Z" fill="#999999"/>
<path fill-rule="evenodd" clip-rule="evenodd" d="M10.9698 7.67141C12.3447 6.21387 12.3447 3.85061 10.9698 2.39308C9.59831 0.939185 7.37671 0.935552 6.00098 2.38218C4.62525 0.935552 2.40365 0.939185 1.03216 2.39308C-0.342753 3.85061 -0.342753 6.21387 1.03216 7.67141L5.61472 12.5304C5.82774 12.7562 6.17316 12.7563 6.3862 12.5304L10.9698 7.67141ZM10.1983 6.85361L6.0005 11.3037L1.80362 6.85366C0.854715 5.84773 0.854715 4.21675 1.80358 3.21087C2.75244 2.20499 4.29098 2.20499 5.23984 3.21087C5.35391 3.3318 5.45642 3.46523 5.54644 3.60904C5.76222 3.95374 6.23969 3.95374 6.45547 3.60904C6.54566 3.46497 6.64769 3.33212 6.76207 3.21087C7.71093 2.20499 9.24947 2.20499 10.1983 3.21087C11.1472 4.21675 11.1472 5.84773 10.1983 6.85361Z" fill="#2296F9"/>
<mask id="mask0" mask-type="alpha" maskUnits="userSpaceOnUse" x="0" y="1" width="13" height="12">
<path fill-rule="evenodd" clip-rule="evenodd" d="M10.9698 7.67141C12.3447 6.21387 12.3447 3.85061 10.9698 2.39308C9.59831 0.939185 7.37671 0.935552 6.00098 2.38218C4.62525 0.935552 2.40365 0.939185 1.03216 2.39308C-0.342753 3.85061 -0.342753 6.21387 1.03216 7.67141L5.61472 12.5304C5.82774 12.7562 6.17316 12.7563 6.3862 12.5304L10.9698 7.67141ZM10.1983 6.85361L6.0005 11.3037L1.80362 6.85366C0.854715 5.84773 0.854715 4.21675 1.80358 3.21087C2.75244 2.20499 4.29098 2.20499 5.23984 3.21087C5.35391 3.3318 5.45642 3.46523 5.54644 3.60904C5.76222 3.95374 6.23969 3.95374 6.45547 3.60904C6.54566 3.46497 6.64769 3.33212 6.76207 3.21087C7.71093 2.20499 9.24947 2.20499 10.1983 3.21087C11.1472 4.21675 11.1472 5.84773 10.1983 6.85361Z" fill="white"/>
</mask>
<g mask="url(#mask0)">
</g>
</svg>
